<svg id="whatsapp" xmlns="http://www.w3.org/2000/svg" width="26" height="25" viewBox="0 0 26 25" fill="none">
                <path d="M19.025 14.982C18.7118 14.8234 17.186 14.0789 16.9008 13.9727C16.6157 13.8711 16.4086 13.818 16.2008 14.1312C15.9977 14.4367 15.3993 15.1359 15.2165 15.3398C15.0336 15.5437 14.854 15.5594 14.5454 15.4211C14.2321 15.2625 13.2313 14.9367 12.043 13.8711C11.1149 13.0453 10.4969 12.0281 10.3133 11.7148C10.1305 11.4055 10.293 11.2305 10.4477 11.0758C10.5899 10.9336 10.761 10.718 10.9196 10.5305C11.0704 10.343 11.1188 10.2172 11.229 10.0141C11.3305 9.79453 11.2782 9.62344 11.2008 9.46875C11.1235 9.31406 10.5008 7.78047 10.2407 7.16953C9.99224 6.56328 9.73208 6.64062 9.54067 6.64062C9.36177 6.62422 9.15396 6.62422 8.94692 6.62422C8.73989 6.62422 8.40161 6.70156 8.11646 6.99844C7.8313 7.31172 7.02583 8.06016 7.02583 9.57422C7.02583 11.0922 8.14067 12.5609 8.29536 12.7805C8.45396 12.9836 10.4883 16.1086 13.6094 17.4516C14.354 17.7648 14.9321 17.9523 15.3836 18.107C16.1282 18.343 16.8079 18.3102 17.3446 18.2328C17.9383 18.1352 19.1836 17.4797 19.4446 16.7477C19.7094 16.0109 19.7094 15.4008 19.6321 15.2625C19.5547 15.1203 19.3516 15.043 19.0383 14.9047L19.025 14.982ZM13.3649 22.6562H13.3485C11.5008 22.6562 9.67427 22.1555 8.07896 21.2195L7.70474 20.9961L3.79849 22.0133L4.84849 18.2125L4.59614 17.8219C3.56646 16.182 3.01724 14.2898 3.01724 12.3453C3.01724 6.67344 7.66021 2.04688 13.3727 2.04688C16.1399 2.04688 18.736 3.125 20.6891 5.07812C22.6422 7.01484 23.7204 9.61094 23.7204 12.3617C23.7125 18.0297 19.0735 22.6562 13.3688 22.6562H13.3649ZM22.1743 3.59297C19.7977 1.29766 16.6727 0 13.3485 0C6.49224 0 0.909424 5.55859 0.905518 12.3898C0.905518 14.5711 1.47505 16.6992 2.56567 18.5828L0.800049 25L7.40005 23.2789C9.2188 24.2594 11.2657 24.7844 13.3493 24.7883H13.3532C20.2133 24.7883 25.7961 19.2297 25.8 12.3938C25.8 9.08594 24.5102 5.97266 22.1586 3.63281L22.1743 3.59297Z" fill="#011627" fill-opacity="0.7"></path>
            </svg>