<svg width="29" height="31" viewBox="0 0 29 31" fill="none" xmlns="http://www.w3.org/2000/svg">
<path d="M24.5 11.625H13.25C11.8693 11.625 10.75 12.8562 10.75 14.375V26.75C10.75 28.2688 11.8693 29.5 13.25 29.5H24.5C25.8807 29.5 27 28.2688 27 26.75V14.375C27 12.8562 25.8807 11.625 24.5 11.625Z" stroke="#FF00C8" stroke-width="3" stroke-linecap="round" stroke-linejoin="round"/>
<path d="M5.75 19.875H4.5C3.83696 19.875 3.20107 19.5853 2.73223 19.0695C2.26339 18.5538 2 17.8543 2 17.125V4.75C2 4.02065 2.26339 3.32118 2.73223 2.80546C3.20107 2.28973 3.83696 2 4.5 2H15.75C16.413 2 17.0489 2.28973 17.5178 2.80546C17.9866 3.32118 18.25 4.02065 18.25 4.75V6.125" stroke="#FF00C8" stroke-width="3" stroke-linecap="round" stroke-linejoin="round"/>
</svg>
