<svg width="25" height="35" viewBox="0 0 25 35" fill="none" xmlns="http://www.w3.org/2000/svg">
<path d="M7.8125 27.5H17.1875C17.6302 27.5 18.0013 27.3353 18.3008 27.0059C18.6003 26.6764 18.75 26.2682 18.75 25.7813C18.75 25.2943 18.6003 24.8861 18.3008 24.5566C18.0013 24.2272 17.6302 24.0625 17.1875 24.0625H7.8125C7.36979 24.0625 6.9987 24.2272 6.69922 24.5566C6.39974 24.8861 6.25 25.2943 6.25 25.7813C6.25 26.2682 6.39974 26.6764 6.69922 27.0059C6.9987 27.3353 7.36979 27.5 7.8125 27.5ZM7.8125 20.625H17.1875C17.6302 20.625 18.0013 20.4603 18.3008 20.1309C18.6003 19.8014 18.75 19.3932 18.75 18.9063C18.75 18.4193 18.6003 18.0111 18.3008 17.6816C18.0013 17.3522 17.6302 17.1875 17.1875 17.1875H7.8125C7.36979 17.1875 6.9987 17.3522 6.69922 17.6816C6.39974 18.0111 6.25 18.4193 6.25 18.9063C6.25 19.3932 6.39974 19.8014 6.69922 20.1309C6.9987 20.4603 7.36979 20.625 7.8125 20.625ZM3.125 34.375C2.26562 34.375 1.52995 34.0384 0.917969 33.3652C0.30599 32.6921 0 31.8828 0 30.9375V3.4375C0 2.49219 0.30599 1.68294 0.917969 1.00977C1.52995 0.336589 2.26562 0 3.125 0H14.3359C14.7526 0 15.1497 0.0859375 15.5273 0.257813C15.9049 0.429688 16.237 0.673177 16.5234 0.988281L24.1016 9.32422C24.388 9.63932 24.6094 10.0046 24.7656 10.4199C24.9219 10.8353 25 11.2721 25 11.7305V30.9375C25 31.8828 24.694 32.6921 24.082 33.3652C23.4701 34.0384 22.7344 34.375 21.875 34.375H3.125ZM14.0625 10.3125V3.4375H3.125V30.9375H21.875V12.0313H15.625C15.1823 12.0313 14.8112 11.8665 14.5117 11.5371C14.2122 11.2077 14.0625 10.7995 14.0625 10.3125Z" fill="#FF00C8"/>
</svg>
